<?xml version="1.0" standalone="no"?>
<!DOCTYPE svg PUBLIC "-//W3C//DTD SVG 20010904//EN"
 "http://www.w3.org/TR/2001/REC-SVG-20010904/DTD/svg10.dtd">
<svg version="1.0" xmlns="http://www.w3.org/2000/svg"
 width="700.000000pt" height="700.000000pt" viewBox="0 0 700.000000 700.000000"
 preserveAspectRatio="xMidYMid meet">
<metadata>
Created by potrace 1.14, written by Peter Selinger 2001-2017
</metadata>
<g transform="translate(0.000000,700.000000) scale(0.100000,-0.100000)"
fill="#000000" stroke="none">
<path d="M1696 6009 c-83 -13 -108 -44 -277 -339 -87 -151 -172 -297 -188
-325 -16 -27 -38 -66 -49 -85 -11 -19 -68 -118 -127 -220 -59 -102 -117 -203
-130 -225 -12 -22 -63 -110 -112 -195 -161 -278 -206 -354 -226 -390 -10 -19
-37 -65 -58 -102 -52 -89 -62 -115 -60 -168 2 -55 6 -64 232 -455 102 -176
197 -340 211 -365 14 -25 106 -184 205 -355 99 -170 191 -330 205 -355 14 -25
49 -85 78 -135 29 -49 61 -106 72 -125 108 -190 132 -219 200 -239 30 -9 309
-12 1126 -12 598 0 1099 3 1115 6 78 16 106 50 247 299 20 36 815 1413 904
1566 59 102 61 107 61 176 l0 70 -109 190 c-60 104 -157 270 -214 369 -125
216 -100 173 -312 540 -95 165 -181 314 -191 330 -10 17 -22 36 -26 44 -4 8
-42 76 -86 150 -43 75 -83 145 -88 156 -31 69 -88 142 -133 169 l-48 30 -1093
1 c-600 0 -1109 -3 -1129 -6z"/>
<path d="M4719 5079 c-6 -3 -3 -11 6 -19 8 -7 15 -17 15 -22 0 -6 31 -63 69
-127 38 -64 79 -134 91 -156 12 -22 29 -53 39 -70 20 -32 78 -133 117 -202 13
-23 54 -93 90 -155 167 -283 173 -297 171 -365 -2 -56 -12 -81 -65 -173 -11
-19 -45 -79 -76 -132 -31 -54 -81 -142 -112 -195 -31 -54 -65 -114 -76 -133
-11 -19 -59 -102 -107 -185 -48 -82 -143 -247 -211 -365 -68 -118 -130 -226
-139 -240 -9 -14 -21 -34 -27 -45 -5 -11 -64 -112 -128 -225 -266 -461 -264
-458 -336 -496 -33 -17 -76 -18 -751 -19 l-715 0 17 -30 c9 -16 59 -102 110
-190 51 -88 132 -230 181 -315 93 -161 112 -186 169 -216 32 -17 93 -18 1150
-18 l1116 -1 49 31 c36 22 61 49 92 99 24 39 46 76 49 84 4 8 35 64 71 125 35
61 115 199 177 306 62 107 172 299 245 425 73 127 141 244 150 260 10 17 31
54 49 83 17 29 31 55 31 57 0 3 15 28 33 57 19 29 37 60 41 68 4 8 12 24 19
35 24 39 172 296 186 323 8 15 17 52 19 82 4 56 -5 87 -45 155 -10 17 -36 62
-58 100 -22 39 -44 78 -50 87 -5 9 -17 29 -26 45 -8 15 -40 71 -71 123 -30 52
-66 115 -80 140 -14 25 -58 101 -98 170 -40 68 -81 138 -90 155 -9 16 -107
185 -217 375 -109 190 -235 407 -279 483 -90 157 -127 200 -187 217 -44 12
-590 20 -608 9z"/>
</g>
</svg>
